<svg xmlns="http://www.w3.org/2000/svg" viewBox="0 0 900 600" width="900" height="600" role="img">
  <defs>
    <linearGradient id="bg-post9" x1="0" y1="0" x2="900" y2="600" gradientUnits="userSpaceOnUse">
      <stop offset="0" stop-color="#0a0a16"/>
      <stop offset="0.55" stop-color="#120c24"/>
      <stop offset="1" stop-color="#0a0a16"/>
    </linearGradient>
    <linearGradient id="accent-post9" x1="0" y1="0" x2="900" y2="600" gradientUnits="userSpaceOnUse">
      <stop offset="0" stop-color="#c026d3"/>
      <stop offset="1" stop-color="#7c3aed"/>
    </linearGradient>
    <radialGradient id="glow-post9" cx="0.5" cy="0.5" r="0.5">
      <stop offset="0" stop-color="#c026d3" stop-opacity="0.9"/>
      <stop offset="1" stop-color="#c026d3" stop-opacity="0"/>
    </radialGradient>
    <pattern id="grid-post9" width="42" height="42" patternUnits="userSpaceOnUse">
      <path d="M42 0H0V42" fill="none" stroke="#ffffff" stroke-opacity="0.045"/>
    </pattern>
  </defs>
  <rect width="900" height="600" fill="url(#bg-post9)"/>
  <rect width="900" height="600" fill="url(#grid-post9)"/>
  <circle cx="52" cy="71" r="113" fill="url(#glow-post9)" opacity="0.15"/><circle cx="586" cy="42" r="139" fill="url(#glow-post9)" opacity="0.14"/><circle cx="541" cy="471" r="163" fill="url(#glow-post9)" opacity="0.12"/><circle cx="570" cy="218" r="83" fill="url(#glow-post9)" opacity="0.13"/>
  <rect x="9" y="598" width="8" height="8" rx="3" fill="#c4b5fd" opacity="0.14" transform="rotate(64 9 598)"/><rect x="327" y="26" width="10" height="10" rx="3" fill="#c4b5fd" opacity="0.13" transform="rotate(304 327 26)"/><rect x="345" y="39" width="20" height="20" rx="3" fill="#c4b5fd" opacity="0.15" transform="rotate(133 345 39)"/><rect x="170" y="90" width="6" height="6" rx="3" fill="#c4b5fd" opacity="0.1" transform="rotate(230 170 90)"/><rect x="669" y="473" width="20" height="20" rx="3" fill="#c4b5fd" opacity="0.16" transform="rotate(313 669 473)"/><rect x="583" y="84" width="16" height="16" rx="3" fill="#c4b5fd" opacity="0.15" transform="rotate(85 583 84)"/>
  <rect width="900" height="600" fill="none" stroke="url(#accent-post9)" stroke-opacity="0.35" stroke-width="2"/>
  <circle cx="450.0" cy="336.00000000000006" r="180.0" fill="url(#accent-post9)" opacity="0.10"/>
  <text x="450.0" y="390.00000000000006" font-size="204" text-anchor="middle" opacity="0.85">🧭</text>
  <rect width="900" height="600" fill="url(#bg-post9)" opacity="0.02"/>
</svg>